<svg xmlns="http://www.w3.org/2000/svg" xmlns:xlink="http://www.w3.org/1999/xlink" width="20" height="20" viewBox="0 0 20 20" fill="none">
<path d="M18.145 9.26015C18.1217 9.24411 18.098 9.22861 18.0741 9.21364C18.0501 9.1987 18.0258 9.18431 18.0012 9.17045C17.9767 9.15662 17.952 9.14334 17.9269 9.13063C17.9016 9.11793 17.8762 9.10582 17.8506 9.09429C17.825 9.08275 17.7991 9.0718 17.773 9.06145C17.7468 9.05111 17.7205 9.04139 17.694 9.03223C17.6675 9.0231 17.6408 9.01459 17.614 9.00667C17.5871 8.99875 17.5601 8.99146 17.5329 8.98481C17.5057 8.97814 17.4784 8.97211 17.451 8.96669C17.4236 8.96127 17.3961 8.95651 17.3684 8.95236C17.3408 8.94821 17.3131 8.9447 17.2853 8.94182C17.2575 8.93894 17.2297 8.93672 17.2018 8.93513C17.1739 8.93352 17.146 8.93259 17.1181 8.93227C17.0901 8.93195 17.0621 8.93229 17.0342 8.93326C17.0064 8.93423 16.9785 8.93584 16.9507 8.93811C16.9228 8.94037 16.8951 8.94325 16.8673 8.94678C16.8396 8.95031 16.812 8.95446 16.7845 8.95927C16.7569 8.96407 16.7295 8.96951 16.7022 8.97556C16.6749 8.98162 16.6477 8.98831 16.6207 8.99561C16.5936 9.00292 16.5668 9.01084 16.5401 9.01939C16.5134 9.02793 16.4869 9.03708 16.4606 9.04684C16.4343 9.05659 16.4082 9.06697 16.3823 9.07793C16.3564 9.08889 16.3308 9.10044 16.3054 9.11257C16.2801 9.12472 16.2549 9.13742 16.2301 9.15072C16.2052 9.16402 16.1807 9.17787 16.1564 9.19229C16.1321 9.20672 16.1082 9.22168 16.0846 9.23721C16.061 9.25273 16.0377 9.26879 16.0147 9.28538C15.9917 9.30198 15.9691 9.31909 15.9469 9.33671C15.9247 9.35434 15.9028 9.37248 15.8814 9.3911C15.8599 9.40974 15.8389 9.42886 15.8182 9.44847C15.7975 9.46806 15.7773 9.48813 15.7575 9.50868C15.7377 9.5292 15.7183 9.55018 15.6994 9.5716C15.6982 9.57279 12.9572 13.4346 10.8872 15.2289C10.3271 15.714 10.1758 15.3692 10.5119 14.8962L13.1853 11.1916C13.8677 10.1113 13.384 8.7379 12.3548 8.2746C12.1032 8.1555 11.8306 8.08662 11.556 8.05128C10.4376 7.90777 9.32107 8.33435 8.53591 9.17758L7.68493 10.0917L12.1658 3.0322C12.1658 3.0322 7.99078 2.46469 5.6216 6.09466L1.47058 12.6813C1.44491 12.7219 1.42022 12.7632 1.39649 12.805C1.37277 12.8469 1.35005 12.8893 1.32832 12.9323C1.3066 12.9754 1.2859 13.0189 1.26622 13.063C1.24654 13.1071 1.22792 13.1517 1.21034 13.1967C1.19275 13.2418 1.17624 13.2872 1.16081 13.3331C1.14537 13.379 1.13101 13.4253 1.11775 13.4719C1.10449 13.5185 1.09233 13.5655 1.08127 13.6127C1.07021 13.6599 1.06028 13.7074 1.05146 13.7552C1.04264 13.803 1.03495 13.8509 1.02839 13.8991C1.02182 13.9472 1.01639 13.9955 1.01209 14.0439C1.0078 14.0924 1.00466 14.1409 1.00266 14.1895C1.00064 14.2381 0.999772 14.2867 1.00005 14.3353C1.00033 14.3839 1.00175 14.4325 1.00431 14.4811C1.00689 14.5297 1.01059 14.5781 1.01544 14.6265C1.02028 14.6749 1.02626 14.7231 1.03337 14.7711C1.04049 14.8192 1.04873 14.8671 1.0581 14.9147C1.06746 14.9624 1.07794 15.0097 1.08954 15.0568C1.10113 15.104 1.11382 15.1507 1.12762 15.1972C1.14142 15.2437 1.1563 15.2897 1.17226 15.3354C1.18823 15.3811 1.20526 15.4264 1.22335 15.4712C1.24145 15.516 1.26058 15.5603 1.28075 15.6042C1.30094 15.648 1.32214 15.6913 1.34436 15.7341C1.36657 15.7768 1.38978 15.819 1.41397 15.8605C1.43818 15.9021 1.46334 15.943 1.48947 15.9833C1.5156 16.0236 1.54266 16.0632 1.57064 16.1021C1.59863 16.1409 1.62752 16.1791 1.6573 16.2165C1.68709 16.2539 1.71773 16.2905 1.74923 16.3264C1.78074 16.3622 1.81307 16.3972 1.84623 16.4314C1.87938 16.4656 1.91331 16.4989 1.94803 16.5313C1.98276 16.5638 2.01823 16.5953 2.05443 16.6259C2.09063 16.6565 2.12753 16.6862 2.16513 16.715C2.20274 16.7437 2.24099 16.7714 2.2799 16.7982C2.29297 16.8072 2.30625 16.8159 2.31973 16.8242C2.3332 16.8325 2.34687 16.8405 2.36073 16.8481C2.37458 16.8557 2.3886 16.863 2.40281 16.8699C2.41701 16.8768 2.43136 16.8833 2.44585 16.8895C2.46036 16.8957 2.475 16.9015 2.48979 16.9069C2.50456 16.9123 2.51945 16.9173 2.53447 16.922C2.54948 16.9266 2.56459 16.9309 2.57981 16.9347C2.59501 16.9386 2.61031 16.9421 2.62569 16.9452C2.64107 16.9483 2.65651 16.951 2.67202 16.9533C2.68753 16.9556 2.70307 16.9575 2.71866 16.959C2.73426 16.9605 2.74988 16.9616 2.76553 16.9623C2.78117 16.963 2.79683 16.9633 2.81249 16.9632C2.82815 16.9631 2.8438 16.9626 2.85943 16.9617C2.87506 16.9608 2.89067 16.9595 2.90626 16.9578C2.92182 16.9561 2.93736 16.954 2.95285 16.9515C2.96831 16.949 2.98372 16.9461 2.99906 16.9428C3.01439 16.9395 3.02965 16.9359 3.04483 16.9318C3.05999 16.9277 3.07505 16.9233 3.09002 16.9184C3.10497 16.9136 3.11981 16.9084 3.13453 16.9028C3.14923 16.8972 3.1638 16.8912 3.17824 16.8848C3.19265 16.8785 3.20694 16.8718 3.22105 16.8647C3.23517 16.8576 3.24911 16.8502 3.26288 16.8424C3.27665 16.8346 3.29021 16.8264 3.3036 16.8179C3.31697 16.8094 3.33015 16.8006 3.34312 16.7915C3.35608 16.7823 3.36882 16.7728 3.38136 16.763C3.39387 16.7532 3.40614 16.743 3.4182 16.7326C3.43022 16.7221 3.44201 16.7114 3.45356 16.7003C3.46508 16.6893 3.47636 16.6779 3.48738 16.6663C3.49837 16.6547 3.50908 16.6428 3.51954 16.6306C3.52996 16.6184 3.54012 16.606 3.54999 16.5933C3.55984 16.5806 3.56939 16.5676 3.57864 16.5544C3.58788 16.5412 3.59682 16.5278 3.60544 16.5142L5.02626 14.2749C5.98736 12.7605 7.16016 11.2257 8.37385 9.92295C8.37385 9.92295 9.16586 9.01163 9.60086 9.07257C9.75721 9.09441 9.83481 9.28358 9.74789 9.42094L6.942 13.8604C6.92482 13.8876 6.90829 13.9152 6.89243 13.9432C6.87655 13.9712 6.86133 13.9996 6.84678 14.0284C6.83223 14.0572 6.81836 14.0863 6.8052 14.1158C6.79202 14.1453 6.77954 14.1751 6.76777 14.2052C6.75598 14.2354 6.74491 14.2658 6.73456 14.2965C6.72421 14.3272 6.71459 14.3581 6.70569 14.3893C6.69679 14.4205 6.68861 14.4519 6.68119 14.4835C6.67375 14.5151 6.66708 14.5469 6.66114 14.5789C6.65519 14.6108 6.65 14.6429 6.64556 14.6751C6.64113 14.7073 6.63746 14.7396 6.63455 14.772C6.63162 14.8045 6.62945 14.8369 6.62806 14.8694C6.62666 14.9019 6.62603 14.9345 6.62616 14.967C6.62628 14.9996 6.62717 15.0321 6.62884 15.0646C6.63048 15.0971 6.6329 15.1295 6.63609 15.1619C6.63925 15.1943 6.64319 15.2265 6.64788 15.2587C6.65256 15.2909 6.658 15.3229 6.6642 15.3548C6.67039 15.3867 6.67733 15.4185 6.68501 15.45C6.6927 15.4815 6.7011 15.5129 6.71025 15.544C6.7194 15.5751 6.72927 15.6059 6.73989 15.6365C6.75046 15.6672 6.76178 15.6975 6.7738 15.7275C6.78582 15.7576 6.79853 15.7872 6.81195 15.8166C6.82534 15.846 6.83944 15.875 6.85422 15.9037C6.86898 15.9324 6.88442 15.9606 6.90053 15.9885C6.91662 16.0164 6.93338 16.0438 6.95077 16.0708C6.96815 16.0979 6.98614 16.1244 7.00478 16.1505C7.0234 16.1766 7.04263 16.2022 7.06247 16.2273C7.08231 16.2525 7.10272 16.2771 7.12372 16.3011C7.1447 16.3252 7.16623 16.3487 7.18833 16.3717C7.21041 16.3947 7.23303 16.4171 7.25618 16.4389C7.2793 16.4607 7.30293 16.4819 7.32708 16.5025C7.3512 16.5231 7.37581 16.5431 7.40088 16.5625C7.42595 16.5818 7.45148 16.6005 7.47742 16.6186C7.97195 16.9626 9.51584 17.5221 10.9903 15.9196C11.473 15.395 12.5749 14.0915 13.656 12.8411C13.7814 12.6964 13.6351 12.9622 13.6351 12.9622L13.1976 13.6947C12.6188 14.6095 12.6592 16.0661 13.536 16.6696C13.562 16.6875 13.5884 16.7047 13.6152 16.7212C13.6419 16.7378 13.6691 16.7536 13.6967 16.7687C13.7242 16.7839 13.7521 16.7983 13.7803 16.812C13.8085 16.8257 13.837 16.8387 13.8659 16.8509C13.8947 16.8632 13.9238 16.8747 13.9532 16.8855C13.9825 16.8962 14.0121 16.9062 14.042 16.9154C14.0718 16.9247 14.1019 16.9332 14.1321 16.9409C14.1623 16.9486 14.1927 16.9555 14.2233 16.9616C14.2539 16.9678 14.2846 16.9732 14.3154 16.9777C14.3462 16.9823 14.3771 16.9861 14.4081 16.9891C14.4391 16.9921 14.4701 16.9943 14.5012 16.9956C14.5323 16.9971 14.5634 16.9976 14.5946 16.9974C14.6257 16.9972 14.6568 16.9963 14.6879 16.9945C14.719 16.9927 14.75 16.9901 14.7809 16.9867C14.8119 16.9834 14.8427 16.9792 14.8735 16.9742C14.9043 16.9693 14.9349 16.9635 14.9654 16.957C14.9959 16.9505 15.0262 16.9432 15.0564 16.9351C15.0865 16.927 15.1164 16.9181 15.1462 16.9085C15.1759 16.8989 15.2054 16.8885 15.2346 16.8774C15.2639 16.8663 15.2928 16.8544 15.3215 16.8418C15.3502 16.8292 15.3786 16.8159 15.4066 16.8018C15.4347 16.7878 15.4624 16.773 15.4898 16.7575C15.5171 16.742 15.5441 16.7258 15.5707 16.7089C15.5973 16.6921 15.6235 16.6746 15.6493 16.6563C15.6751 16.6381 15.7004 16.6193 15.7253 16.5998C15.7502 16.5803 15.7746 16.5601 15.7985 16.5394C15.8225 16.5186 15.8459 16.4972 15.8689 16.4753C15.8918 16.4533 15.9142 16.4308 15.9361 16.4077C15.958 16.3846 15.9793 16.361 16 16.3367C16.0208 16.3125 16.041 16.2878 16.0606 16.2626C16.0802 16.2374 16.0992 16.2116 16.1176 16.1854C16.136 16.1592 16.1537 16.1326 16.1709 16.1054L18.6858 12.0102C18.7029 11.9831 18.7194 11.9555 18.7352 11.9275C18.7511 11.8996 18.7662 11.8712 18.7807 11.8425C18.7953 11.8137 18.8091 11.7846 18.8223 11.7552C18.8354 11.7257 18.8478 11.696 18.8596 11.6659C18.8713 11.6358 18.8823 11.6054 18.8927 11.5748C18.903 11.5441 18.9126 11.5132 18.9214 11.4821C18.9303 11.4509 18.9384 11.4196 18.9458 11.388C18.9531 11.3565 18.9597 11.3247 18.9656 11.2928C18.9715 11.2609 18.9767 11.2289 18.9812 11.1967C18.9855 11.1646 18.9891 11.1323 18.992 11.1C18.9948 11.0676 18.9969 11.0352 18.9983 11.0027C18.9995 10.9703 19.0001 10.9378 19 10.9053C18.9997 10.8729 18.9988 10.8404 18.9971 10.8079C18.9953 10.7755 18.9929 10.7431 18.9897 10.7108C18.9864 10.6785 18.9824 10.6463 18.9777 10.6142C18.9729 10.5821 18.9674 10.5501 18.9612 10.5183C18.955 10.4865 18.9479 10.4548 18.9401 10.4233C18.9323 10.3919 18.9239 10.3606 18.9148 10.3296C18.9055 10.2986 18.8956 10.2678 18.8849 10.2373C18.8743 10.2068 18.8629 10.1765 18.8507 10.1466C18.8386 10.1166 18.8259 10.087 18.8124 10.0577C18.799 10.0285 18.7849 9.99955 18.77 9.97098C18.7551 9.94244 18.7395 9.91427 18.7234 9.8865C18.7073 9.85875 18.6905 9.83142 18.673 9.8045C18.6555 9.77761 18.6375 9.75116 18.6188 9.72518C18.6 9.69922 18.5807 9.67373 18.5608 9.64874C18.541 9.62377 18.5206 9.59929 18.4996 9.57535C18.4785 9.55141 18.4569 9.52803 18.4347 9.50518C18.4125 9.48236 18.3898 9.4601 18.3666 9.43845C18.3435 9.41677 18.3199 9.39571 18.2957 9.37524C18.2714 9.3548 18.2468 9.33497 18.2217 9.31577C18.1966 9.2966 18.171 9.27804 18.145 9.26015Z"   fill="#000000" >
</path>
</svg>
