<svg xmlns="http://www.w3.org/2000/svg" xmlns:xlink="http://www.w3.org/1999/xlink" width="40" height="24" viewBox="0 0 40 24" fill="none">
<path d="M28.67 11.3902C28.6337 11.3662 28.597 11.3429 28.5597 11.3205C28.5224 11.298 28.4846 11.2765 28.4464 11.2557C28.4083 11.2349 28.3697 11.215 28.3307 11.1959C28.2914 11.1769 28.2518 11.1587 28.212 11.1414C28.1722 11.1241 28.1319 11.1077 28.0913 11.0922C28.0507 11.0767 28.0097 11.0621 27.9685 11.0484C27.9273 11.0347 27.8858 11.0219 27.844 11.01C27.8021 10.9981 27.7601 10.9872 27.7179 10.9772C27.6755 10.9672 27.633 10.9582 27.5904 10.95C27.5478 10.9419 27.505 10.9348 27.462 10.9285C27.419 10.9223 27.3759 10.917 27.3327 10.9127C27.2895 10.9084 27.2462 10.9051 27.2028 10.9027C27.1594 10.9003 27.116 10.8989 27.0726 10.8984C27.029 10.8979 26.9855 10.8984 26.9421 10.8999C26.8988 10.9014 26.8555 10.9038 26.8122 10.9072C26.7688 10.9106 26.7256 10.9149 26.6825 10.9202C26.6394 10.9255 26.5964 10.9317 26.5536 10.9389C26.5108 10.9461 26.4681 10.9543 26.4256 10.9633C26.3831 10.9724 26.3409 10.9825 26.2988 10.9934C26.2568 11.0044 26.215 11.0163 26.1735 11.0291C26.1319 11.0419 26.0907 11.0556 26.0498 11.0703C26.0089 11.0849 25.9683 11.1005 25.9281 11.1169C25.8878 11.1333 25.8479 11.1507 25.8084 11.1689C25.769 11.1871 25.7299 11.2061 25.6912 11.2261C25.6526 11.246 25.6144 11.2668 25.5767 11.2884C25.5389 11.3101 25.5016 11.3325 25.4649 11.3558C25.4282 11.3791 25.3919 11.4032 25.3562 11.4281C25.3205 11.453 25.2853 11.4786 25.2508 11.5051C25.2162 11.5315 25.1822 11.5587 25.1488 11.5867C25.1154 11.6146 25.0827 11.6433 25.0505 11.6727C25.0184 11.7021 24.9869 11.7322 24.9561 11.763C24.9253 11.7938 24.8951 11.8253 24.8657 11.8574C24.8639 11.8592 20.6001 17.6519 17.3801 20.3433C16.5088 21.071 16.2735 20.5538 16.7963 19.8443L20.9548 14.2873C22.0164 12.667 21.264 10.6068 19.6631 9.9119C19.2716 9.73325 18.8476 9.62993 18.4204 9.57693C16.6807 9.36165 14.9439 10.0015 13.7225 11.2664L12.3988 12.6375L19.369 2.0483C19.369 2.0483 12.8746 1.19703 9.18915 6.642L2.73201 16.522C2.69209 16.5829 2.65367 16.6447 2.61677 16.7075C2.57986 16.7703 2.54452 16.834 2.51073 16.8985C2.47694 16.9631 2.44474 17.0284 2.41412 17.0945C2.38351 17.1607 2.35454 17.2275 2.3272 17.295C2.29984 17.3626 2.27416 17.4308 2.25015 17.4997C2.22613 17.5685 2.2038 17.6379 2.18317 17.7078C2.16253 17.7778 2.14362 17.8482 2.12642 17.919C2.10922 17.9899 2.09376 18.0612 2.08005 18.1328C2.06632 18.2044 2.05436 18.2764 2.04416 18.3486C2.03395 18.4208 2.02549 18.4933 2.01881 18.5659C2.01214 18.6385 2.00725 18.7113 2.00413 18.7842C2.001 18.8571 1.99965 18.93 2.00008 19.0029C2.00051 19.0759 2.00272 19.1488 2.00671 19.2216C2.01071 19.2945 2.01648 19.3672 2.02401 19.4397C2.03155 19.5123 2.04085 19.5846 2.05192 19.6567C2.06298 19.7288 2.0758 19.8006 2.09038 19.8721C2.10494 19.9435 2.12124 20.0146 2.13929 20.0853C2.15732 20.156 2.17706 20.2261 2.19852 20.2958C2.21998 20.3655 2.24313 20.4346 2.26796 20.5031C2.2928 20.5716 2.31929 20.6395 2.34743 20.7068C2.37558 20.774 2.40535 20.8405 2.43673 20.9063C2.46813 20.972 2.50111 21.037 2.53567 21.1011C2.57023 21.1652 2.60632 21.2285 2.64396 21.2908C2.68161 21.3532 2.72076 21.4145 2.76139 21.475C2.80204 21.5354 2.84413 21.5947 2.88767 21.6531C2.9312 21.7114 2.97614 21.7686 3.02247 21.8247C3.0688 21.8809 3.11647 21.9358 3.16546 21.9895C3.21448 22.0433 3.26478 22.0958 3.31636 22.1471C3.36792 22.1983 3.4207 22.2483 3.47471 22.297C3.52874 22.3456 3.58391 22.393 3.64022 22.4389C3.69654 22.4848 3.75394 22.5293 3.81242 22.5724C3.87092 22.6156 3.93043 22.6572 3.99095 22.6973C4.01129 22.7108 4.03194 22.7238 4.05291 22.7363C4.07387 22.7488 4.09514 22.7607 4.1167 22.7721C4.13824 22.7836 4.16005 22.7945 4.18214 22.8048C4.20423 22.8152 4.22655 22.825 4.2491 22.8342C4.27166 22.8435 4.29445 22.8522 4.31745 22.8603C4.34042 22.8684 4.36359 22.876 4.38695 22.8829C4.4103 22.8899 4.43381 22.8963 4.45748 22.9021C4.48113 22.9079 4.50492 22.9132 4.52885 22.9178C4.55277 22.9224 4.5768 22.9265 4.60092 22.9299C4.62505 22.9334 4.64923 22.9362 4.67347 22.9385C4.69773 22.9408 4.72203 22.9424 4.74637 22.9434C4.77071 22.9445 4.79506 22.945 4.81943 22.9448C4.84378 22.9447 4.86813 22.9439 4.89245 22.9425C4.91677 22.9412 4.94105 22.9392 4.9653 22.9367C4.9895 22.9342 5.01367 22.931 5.03776 22.9272C5.06181 22.9235 5.08578 22.9192 5.10966 22.9142C5.1335 22.9093 5.15723 22.9038 5.18084 22.8977C5.20442 22.8916 5.22786 22.8849 5.25114 22.8776C5.2744 22.8704 5.29748 22.8625 5.32038 22.8541C5.34325 22.8457 5.36591 22.8368 5.38837 22.8272C5.4108 22.8177 5.43302 22.8077 5.45497 22.797C5.47692 22.7864 5.49861 22.7753 5.52003 22.7635C5.54145 22.7519 5.56255 22.7397 5.58338 22.7269C5.60418 22.7142 5.62468 22.701 5.64486 22.6872C5.66501 22.6734 5.68483 22.6592 5.70433 22.6445C5.7238 22.6298 5.74288 22.6145 5.76164 22.5989C5.78034 22.5832 5.79869 22.5671 5.81664 22.5505C5.83457 22.5339 5.85212 22.5169 5.86925 22.4994C5.88635 22.482 5.90301 22.4642 5.91928 22.4459C5.9355 22.4276 5.9513 22.4089 5.96665 22.3899C5.98198 22.3708 5.99683 22.3514 6.01121 22.3316C6.02559 22.3119 6.0395 22.2917 6.0529 22.2712L8.26307 18.9123C9.75812 16.6408 11.5825 14.3386 13.4704 12.3844C13.4704 12.3844 14.7025 11.0174 15.3791 11.1089C15.6223 11.1416 15.743 11.4254 15.6078 11.6314L11.2431 18.2906C11.2164 18.3314 11.1907 18.3728 11.166 18.4148C11.1413 18.4568 11.1176 18.4994 11.095 18.5426C11.0724 18.5857 11.0508 18.6294 11.0303 18.6737C11.0098 18.7179 10.9904 18.7627 10.9721 18.8079C10.9537 18.8531 10.9365 18.8987 10.9204 18.9447C10.9043 18.9908 10.8894 19.0372 10.8755 19.084C10.8617 19.1308 10.8489 19.1779 10.8374 19.2253C10.8258 19.2727 10.8155 19.3204 10.8062 19.3683C10.797 19.4163 10.7889 19.4644 10.782 19.5127C10.7751 19.561 10.7694 19.6095 10.7649 19.6581C10.7603 19.7067 10.7569 19.7554 10.7548 19.8041C10.7526 19.8529 10.7516 19.9017 10.7518 19.9505C10.752 19.9993 10.7534 20.0481 10.756 20.0969C10.7585 20.1456 10.7623 20.1943 10.7673 20.2428C10.7722 20.2914 10.7783 20.3398 10.7856 20.3881C10.7929 20.4363 10.8013 20.4844 10.811 20.5322C10.8206 20.5801 10.8314 20.6277 10.8434 20.675C10.8553 20.7223 10.8684 20.7693 10.8826 20.816C10.8968 20.8626 10.9122 20.9089 10.9287 20.9548C10.9452 21.0007 10.9628 21.0462 10.9815 21.0913C11.0002 21.1363 11.0199 21.1809 11.0408 21.2249C11.0616 21.269 11.0836 21.3126 11.1066 21.3555C11.1295 21.3985 11.1535 21.441 11.1786 21.4828C11.2036 21.5246 11.2297 21.5657 11.2567 21.6063C11.2838 21.6468 11.3118 21.6866 11.3408 21.7258C11.3697 21.7649 11.3997 21.8034 11.4305 21.841C11.4614 21.8787 11.4931 21.9156 11.5258 21.9517C11.5584 21.9878 11.5919 22.0231 11.6263 22.0575C11.6606 22.092 11.6958 22.1256 11.7318 22.1583C11.7678 22.1911 11.8046 22.2229 11.8421 22.2538C11.8796 22.2847 11.9179 22.3147 11.9569 22.3437C11.9959 22.3727 12.0356 22.4008 12.076 22.4279C12.8453 22.9439 15.2469 23.7832 17.5405 21.3795C18.2914 20.5925 20.0054 18.6372 21.6871 16.7617C21.8821 16.5446 21.6546 16.9433 21.6546 16.9433L20.9741 18.042C20.0737 19.4143 20.1365 21.5992 21.5004 22.5044C21.5409 22.5312 21.5819 22.557 21.6236 22.5818C21.6652 22.6066 21.7075 22.6304 21.7504 22.6531C21.7932 22.6758 21.8365 22.6974 21.8805 22.718C21.9244 22.7386 21.9687 22.758 22.0136 22.7764C22.0584 22.7948 22.1037 22.812 22.1494 22.8282C22.1951 22.8443 22.2411 22.8593 22.2875 22.8732C22.3339 22.887 22.3807 22.8998 22.4277 22.9113C22.4747 22.9229 22.522 22.9333 22.5696 22.9425C22.6171 22.9517 22.6649 22.9597 22.7128 22.9666C22.7607 22.9735 22.8088 22.9791 22.857 22.9836C22.9052 22.9881 22.9535 22.9914 23.0019 22.9935C23.0503 22.9956 23.0987 22.9965 23.1471 22.9962C23.1955 22.9959 23.2439 22.9944 23.2922 22.9917C23.3406 22.989 23.3888 22.9852 23.437 22.9801C23.4852 22.975 23.5331 22.9688 23.581 22.9613C23.6289 22.9539 23.6765 22.9453 23.724 22.9355C23.7714 22.9257 23.8185 22.9147 23.8654 22.9026C23.9123 22.8905 23.9589 22.8772 24.0051 22.8628C24.0514 22.8484 24.0973 22.8328 24.1428 22.8161C24.1882 22.7994 24.2333 22.7816 24.2779 22.7627C24.3225 22.7438 24.3667 22.7238 24.4103 22.7027C24.454 22.6816 24.4971 22.6594 24.5396 22.6362C24.5822 22.613 24.6242 22.5887 24.6656 22.5634C24.7069 22.5381 24.7477 22.5119 24.7878 22.4845C24.8279 22.4572 24.8673 22.4289 24.906 22.3997C24.9447 22.3704 24.9827 22.3402 25.0199 22.3091C25.0572 22.2779 25.0937 22.2459 25.1293 22.2129C25.165 22.18 25.1999 22.1462 25.2339 22.1116C25.2679 22.0769 25.3011 22.0414 25.3334 22.0051C25.3657 21.9688 25.3971 21.9317 25.4276 21.8939C25.4581 21.8561 25.4876 21.8175 25.5163 21.7781C25.5448 21.7388 25.5725 21.6988 25.5992 21.6582L29.5112 15.5153C29.5378 15.4746 29.5635 15.4333 29.5881 15.3913C29.6128 15.3494 29.6364 15.3068 29.6588 15.2637C29.6815 15.2206 29.7031 15.177 29.7236 15.1328C29.7439 15.0886 29.7633 15.044 29.7816 14.9988C29.7998 14.9537 29.8169 14.9081 29.8331 14.8622C29.8491 14.8162 29.864 14.7699 29.8778 14.7231C29.8916 14.6764 29.9042 14.6294 29.9157 14.582C29.9271 14.5347 29.9373 14.4871 29.9464 14.4392C29.9557 14.3914 29.9638 14.3433 29.9707 14.2951C29.9774 14.2469 29.983 14.1985 29.9876 14.1499C29.9919 14.1014 29.9951 14.0528 29.9973 14.0041C29.9993 13.9554 30.0002 13.9067 30 13.858C29.9996 13.8093 29.9981 13.7606 29.9955 13.7119C29.9928 13.6633 29.9889 13.6147 29.984 13.5662C29.9789 13.5177 29.9726 13.4695 29.9654 13.4213C29.9578 13.3731 29.9493 13.3252 29.9396 13.2774C29.9299 13.2297 29.919 13.1822 29.9068 13.135C29.8947 13.0878 29.8816 13.041 29.8674 12.9944C29.853 12.9479 29.8375 12.9017 29.821 12.8559C29.8044 12.8101 29.7867 12.7648 29.7677 12.7199C29.749 12.675 29.7291 12.6306 29.7083 12.5866C29.6873 12.5427 29.6653 12.4993 29.6423 12.4565C29.619 12.4137 29.5948 12.3714 29.5698 12.3298C29.5447 12.2881 29.5186 12.2471 29.4914 12.2068C29.4642 12.1664 29.436 12.1267 29.4071 12.0878C29.3778 12.0488 29.3478 12.0106 29.3168 11.9731C29.286 11.9356 29.2543 11.8989 29.2215 11.863C29.1888 11.8271 29.1551 11.792 29.1206 11.7578C29.0861 11.7235 29.0508 11.6902 29.0147 11.6577C28.9788 11.6252 28.942 11.5936 28.9044 11.5629C28.8667 11.5322 28.8283 11.5025 28.7893 11.4737C28.7502 11.4449 28.7104 11.4171 28.67 11.3902Z"   fill="#FFFFFF" >
</path>
</svg>
